<svg width="111" height="32" viewBox="0 0 111 32" fill="none" xmlns="http://www.w3.org/2000/svg">
    <path d="M23.3333 4H8.66667C6.08934 4 4 6.08934 4 8.66667V23.3333C4 25.9107 6.08934 28 8.66667 28H23.3333C25.9107 28 28 25.9107 28 23.3333V8.66667C28 6.08934 25.9107 4 23.3333 4Z" fill="#5741D9"/>
    <path d="M40.6667 13.3333H36V18.6667H40.6667V13.3333Z" fill="#5741D9"/>
    <path d="M53.3333 13.3333H48.6667V18.6667H53.3333V13.3333Z" fill="#5741D9"/>
    <path d="M66 13.3333H61.3333V18.6667H66V13.3333Z" fill="#5741D9"/>
    <path d="M78.6667 13.3333H74V18.6667H78.6667V13.3333Z" fill="#5741D9"/>
    <path d="M91.3333 13.3333H86.6667V18.6667H91.3333V13.3333Z" fill="#5741D9"/>
    <path d="M104 13.3333H99.3333V18.6667H104V13.3333Z" fill="#5741D9"/>
</svg>